:FULLY-SPECIFIED
:FORCE-ALL-JOINTS-BE-3DOF
:DEGREES
1733
root -5.06828 15.63 27.1549 -172.512 -4.93393 -171.406
lfemur -46.1677 21.3616 -20.7817
ltibia 63.9238 -0 0
lfoot -16.6187 32.4092 -0.337365
ltoes -4.64901 0 0
rfemur -23.2836 -17.3067 16.5896
rtibia 68.0954 -0 0
rfoot -8.66786 -24.6022 -0.0160994
rtoes 9.31743 -0 0
lowerback 15.0142 2.08884 -4.35421
upperback -1.04161 2.23285 3.18118
thorax -9.74489 1.37305 5.46481
lowerneck 4.16202 -14.3842 -15.2632
upperneck -2.51495 -20.4689 21.4803
head 2.6545 -10.5452 8.17405
lclavicle 0 0 0
lhumerus -48.4193 -45.613 118.941
lradius 96.1025 -0 0
lwrist 37.315 0 0
lhand -5.58525 40.5615 0.21795
lfingers 0 0 0
lthumb 20.2264 69.476 0.196368
rclavicle 0 0 0
rhumerus 50.4354 30.1315 -24.3712
rradius 105.619 -0 0
rwrist -14.4323 0 0
rhand 4.80505 -27.783 0.214406
rfingers 0 0 0
rthumb 30.1423 -54.8795 0.337467
1734
root -5.007 15.6369 27.1991 -172.342 -1.86637 -171.292
lfemur -45.5549 20.9708 -19.9699
ltibia 64.4004 -0 0
lfoot -16.2888 31.7947 -0.368867
ltoes -5.46328 0 0
rfemur -23.4862 -18.0842 16.9654
rtibia 67.6437 -0 0
rfoot -8.88381 -24.5573 -0.0175992
rtoes 8.62772 -0 0
lowerback 14.9913 2.24327 -4.22098
upperback -1.04127 2.45731 3.08378
thorax -9.73413 1.4713 5.23
lowerneck 3.86797 -14.1256 -15.0426
upperneck -2.24059 -20.0809 21.1561
head 2.66639 -10.3224 8.06688
lclavicle 0 0 0
lhumerus -49.3386 -44.5662 118.658
lradius 96.4382 -0 0
lwrist 36.5352 0 0
lhand -5.89683 40.1409 0.238278
lfingers 0 0 0
lthumb 19.9266 69.0822 0.214681
rclavicle 0 0 0
rhumerus 48.9885 29.2912 -25.5369
rradius 103.081 -0 0
rwrist -13.555 0 0
rhand 3.99266 -27.9415 0.234447
rfingers 0 0 0
rthumb 29.3636 -55.1398 0.369009
1735
root -4.94956 15.6435 27.2404 -172.16 1.29732 -171.165
lfemur -44.9308 20.5593 -19.1395
ltibia 64.8919 -0 0
lfoot -15.9481 31.1608 -0.39765
ltoes -6.30317 0 0
rfemur -23.7017 -18.8849 17.3578
rtibia 67.1778 -0 0
rfoot -9.10655 -24.5111 -0.0189691
rtoes 7.9163 -0 0
lowerback 14.968 2.40261 -4.08361
upperback -1.04132 2.68883 2.98331
thorax -9.72344 1.57269 4.98781
lowerneck 3.56609 -13.8577 -14.8167
upperneck -1.96075 -19.6793 20.8247
head 2.6782 -10.0925 7.95647
lclavicle 0 0 0
lhumerus -50.2775 -43.4898 118.347
lradius 96.7845 -0 0
lwrist 35.7309 0 0
lhand -6.21836 39.707 0.256849
lfingers 0 0 0
lthumb 19.6172 68.6758 0.231409
rclavicle 0 0 0
rhumerus 47.529 28.3982 -26.7036
rradius 100.463 -0 0
rwrist -12.6501 0 0
rhand 3.15466 -28.1053 0.252763
rfingers 0 0 0
rthumb 28.5602 -55.4087 0.397835
1736
root -4.89584 15.6499 27.2791 -171.965 4.5437 -171.024
lfemur -44.2987 20.1283 -18.2946
ltibia 65.3963 -0 0
lfoot -15.5982 30.51 -0.423268
ltoes -7.16512 0 0
rfemur -23.9301 -19.705 17.7659
rtibia 66.6996 -0 0
rfoot -9.33515 -24.4636 -0.0201879
rtoes 7.18619 -0 0
lowerback 14.9445 2.5662 -3.94268
upperback -1.04179 2.92643 2.88018
thorax -9.71293 1.6768 4.73926
lowerneck 3.25777 -13.5816 -14.5866
upperneck -1.67683 -19.2656 20.4876
head 2.68985 -9.85654 7.84329
lclavicle 0 0 0
lhumerus -51.2323 -42.3891 118.009
lradius 97.1398 -0 0
lwrist 34.9054 0 0
lhand -6.54847 39.2615 0.273375
lfingers 0 0 0
lthumb 19.2996 68.2587 0.246296
rclavicle 0 0 0
rhumerus 46.0655 27.4553 -27.8639
rradius 97.7766 -0 0
rwrist -11.7215 0 0
rhand 2.29459 -28.2736 0.269066
rfingers 0 0 0
rthumb 27.7356 -55.685 0.423494
1737
root -4.84571 15.656 27.3151 -171.757 7.85932 -170.868
lfemur -43.6619 19.6791 -17.4392
ltibia 65.9116 -0 0
lfoot -15.2405 29.8451 -0.445332
ltoes -8.04561 0 0
rfemur -24.171 -20.5412 18.1885
rtibia 66.2112 -0 0
rfoot -9.56866 -24.4151 -0.0212373
rtoes 6.44039 -0 0
lowerback 14.9209 2.73336 -3.79877
upperback -1.04272 3.16914 2.7748
thorax -9.70265 1.78318 4.48538
lowerneck 2.94438 -13.2983 -14.3535
upperneck -1.39021 -18.8413 20.1464
head 2.70125 -9.6155 7.72781
lclavicle 0 0 0
lhumerus -52.1999 -41.2692 117.644
lradius 97.5028 -0 0
lwrist 34.0622 0 0
lhand -6.8858 38.8064 0.287606
lfingers 0 0 0
lthumb 18.9751 67.8326 0.259115
rclavicle 0 0 0
rhumerus 44.6057 26.4658 -29.0108
rradius 95.0321 -0 0
rwrist -10.7728 0 0
rhand 1.41598 -28.4458 0.28311
rfingers 0 0 0
rthumb 26.8931 -55.9676 0.445596
1738
root -4.79905 15.6618 27.3487 -171.533 11.2307 -170.694
lfemur -43.0234 19.2132 -16.5772
ltibia 66.4356 -0 0
lfoot -14.8765 29.1687 -0.463512
ltoes -8.94107 0 0
rfemur -24.4243 -21.3899 18.6247
rtibia 65.7145 -0 0
rfoot -9.80615 -24.3657 -0.0221017
rtoes 5.68191 -0 0
lowerback 14.8974 2.90342 -3.65246
upperback -1.04412 3.41598 2.6676
thorax -9.69268 1.89142 4.22718
lowerneck 2.62724 -13.0089 -14.1183
upperneck -1.10219 -18.4082 19.8025
head 2.71233 -9.37033 7.61049
lclavicle 0 0 0
lhumerus -53.1769 -40.1351 117.254
lradius 97.872 -0 0
lwrist 33.2046 0 0
lhand -7.22898 38.3435 0.29933
lfingers 0 0 0
lthumb 18.6449 67.3992 0.269675
rclavicle 0 0 0
rhumerus 43.1565 25.4333 -30.1382
rradius 92.2409 -0 0
rwrist -9.80807 0 0
rhand 0.522391 -28.6212 0.294682
rfingers 0 0 0
rthumb 26.0362 -56.2554 0.463809
1739
root -4.75573 15.6673 27.3799 -171.293 14.6444 -170.502
lfemur -42.3862 18.7322 -15.7124
ltibia 66.9664 -0 0
lfoot -14.5076 28.4836 -0.477542
ltoes -9.84795 0 0
rfemur -24.6894 -22.2475 19.0731
rtibia 65.2114 -0 0
rfoot -10.0467 -24.3158 -0.0227687
rtoes 4.91374 -0 0
lowerback 14.8739 3.07572 -3.50433
upperback -1.04601 3.66596 2.559
thorax -9.68308 2.00108 3.96569
lowerneck 2.30767 -12.7146 -13.882
upperneck -0.814003 -17.9679 19.4574
head 2.72302 -9.12202 7.49181
lclavicle 0 0 0
lhumerus -54.1603 -38.9917 116.841
lradius 98.2459 -0 0
lwrist 32.3361 0 0
lhand -7.57662 37.8746 0.308377
lfingers 0 0 0
lthumb 18.3105 66.9601 0.277825
rclavicle 0 0 0
rhumerus 41.7242 24.3622 -31.2407
rradius 89.4141 -0 0
rwrist -8.83099 0 0
rhand -0.382637 -28.7989 0.303614
rfingers 0 0 0
rthumb 25.1683 -56.5471 0.477866
